<?xml version="1.0" standalone="no"?>
<!DOCTYPE svg PUBLIC "-//W3C//DTD SVG 20010904//EN"
 "http://www.w3.org/TR/2001/REC-SVG-20010904/DTD/svg10.dtd">
<svg version="1.0" xmlns="http://www.w3.org/2000/svg"
 width="1088.000000pt" height="1088.000000pt" viewBox="0 0 1088.000000 1088.000000"
 preserveAspectRatio="xMidYMid meet">

<g transform="translate(0.000000,1088.000000) scale(0.100000,-0.100000)"
fill="#000000" stroke="none">
<path d="M6405 7381 c-55 -4 -122 -13 -150 -20 -27 -6 -86 -20 -130 -31 -79
-18 -347 -109 -436 -148 -25 -11 -92 -37 -150 -57 -57 -21 -178 -69 -269 -108
-219 -93 -417 -175 -461 -192 -20 -7 -45 -18 -55 -24 -11 -6 -46 -21 -79 -35
-33 -13 -140 -63 -238 -110 -98 -47 -180 -86 -183 -86 -16 0 -951 -458 -1081
-529 -10 -6 -54 -27 -98 -47 -147 -68 -199 -94 -310 -154 -60 -33 -132 -70
-160 -82 -27 -13 -176 -86 -331 -163 -352 -176 -394 -195 -421 -195 -32 0 -52
-10 -48 -23 3 -7 -17 -22 -43 -34 -26 -13 -78 -41 -117 -63 -38 -22 -86 -48
-105 -56 -19 -9 -76 -36 -126 -60 -51 -24 -95 -44 -99 -44 -3 0 -25 -13 -49
-29 -23 -16 -62 -34 -86 -41 -25 -7 -51 -17 -57 -22 -10 -8 -13 -64 -13 -215
l0 -205 68 6 c37 3 191 17 342 31 151 13 329 29 395 36 66 6 149 13 185 15
212 15 726 60 775 69 17 3 113 12 215 20 281 23 429 35 490 40 30 2 102 7 160
10 58 3 175 12 260 20 85 8 196 17 245 20 50 3 131 10 180 16 50 5 214 16 365
24 l275 14 92 -44 c50 -24 121 -61 157 -83 37 -22 111 -59 166 -83 55 -23 97
-46 93 -50 -9 -9 -314 -24 -903 -44 -234 -8 -528 -19 -655 -25 -126 -6 -390
-15 -585 -21 -195 -5 -413 -14 -485 -19 -119 -8 -630 -21 -1508 -36 -316 -6
-337 -7 -337 -24 0 -22 13 -23 370 -45 135 -9 342 -24 460 -35 118 -11 294
-24 390 -30 216 -13 685 -46 840 -60 63 -6 198 -14 300 -20 102 -5 259 -14
350 -20 91 -6 275 -17 410 -25 135 -9 304 -19 375 -25 227 -16 1171 -62 1660
-81 154 -6 721 -11 1260 -12 918 -2 1110 2 1380 28 22 2 78 6 125 10 47 4 150
15 230 26 80 11 184 24 232 29 48 5 97 14 108 20 28 15 56 78 70 161 10 56 9
77 -4 128 -33 127 -155 338 -378 652 -18 26 -57 82 -87 125 -29 44 -64 90 -77
104 -12 14 -62 79 -111 146 -97 132 -169 222 -253 317 -30 34 -84 96 -120 137
-97 110 -173 193 -291 314 l-105 109 -35 -11 c-19 -6 -88 -29 -154 -51 -239
-79 -307 -85 -1010 -86 -324 -1 -651 -2 -725 -4 -158 -2 -158 -2 37 -75 151
-56 317 -123 363 -146 19 -10 85 -39 146 -64 159 -65 605 -287 794 -396 41
-24 104 -59 140 -78 142 -76 402 -232 420 -252 3 -3 21 -14 40 -24 19 -11 73
-45 120 -75 47 -31 94 -61 105 -67 11 -6 61 -38 110 -72 50 -35 142 -97 205
-139 63 -43 165 -116 226 -163 61 -47 156 -116 210 -155 54 -38 126 -100 159
-136 60 -66 138 -119 174 -119 31 0 35 -19 6 -32 -22 -10 -30 -8 -55 10 -16
12 -32 22 -36 22 -4 0 -17 8 -28 19 -12 10 -62 37 -113 60 -124 57 -1156 578
-1308 661 -33 18 -134 71 -225 118 -91 46 -194 101 -230 122 -36 21 -191 101
-345 178 -154 77 -311 156 -350 175 -191 98 -614 302 -716 345 -63 28 -166 74
-229 105 -172 82 -228 107 -237 107 -4 0 -39 12 -78 27 -63 25 -67 28 -42 33
25 4 32 14 52 71 46 134 182 388 269 504 53 70 189 206 241 239 73 47 75 48
75 38 0 -5 -12 -15 -26 -23 -43 -23 -195 -233 -232 -321 -41 -95 -57 -188 -55
-316 1 -68 3 -126 6 -128 2 -2 382 -5 843 -7 764 -2 850 0 959 16 115 17 226
45 290 72 17 7 49 18 71 25 23 7 55 23 70 36 l29 23 -41 38 c-76 70 -178 158
-223 193 -26 19 -54 42 -64 51 -44 40 -398 268 -501 321 -28 15 -59 27 -68 27
-10 1 -18 5 -18 9 0 5 -42 28 -92 51 -51 24 -114 54 -141 68 -82 43 -320 100
-444 107 -37 2 -113 1 -168 -3z m-85 -175 c0 -2 -18 -13 -40 -25 -48 -25 -52
-21 -7 8 31 20 47 26 47 17z m-1349 -1456 c1 -341 1 -632 2 -647 1 -27 -1 -28
-57 -31 -68 -4 -84 6 -64 39 10 19 14 147 18 624 l5 600 35 17 c19 9 41 17 48
18 9 0 12 -131 13 -620z m-601 257 c19 -12 43 -38 54 -57 20 -33 21 -51 21
-300 0 -299 -2 -309 -74 -354 -50 -32 -94 -43 -281 -73 -85 -13 -197 -31 -249
-39 -52 -8 -106 -14 -120 -12 -24 3 -26 7 -32 73 -4 39 -7 160 -8 269 -1 183
1 203 20 243 32 67 72 94 254 173 17 7 125 38 315 89 53 14 64 13 100 -12z
m-960 -355 c37 -38 42 -76 38 -299 -3 -177 -4 -182 -28 -208 -13 -14 -39 -35
-56 -45 -28 -18 -173 -48 -334 -70 -78 -10 -94 -1 -108 68 -13 60 -1 417 14
432 6 6 73 38 150 72 131 57 149 62 282 77 8 0 26 -12 42 -27z m-713 -217 l43
-26 0 -165 c0 -169 -8 -213 -47 -256 -18 -20 -117 -43 -253 -58 -84 -10 -96
-9 -107 5 -30 42 -30 307 0 378 13 31 27 43 74 64 53 23 215 80 237 82 5 1 29
-10 53 -24z m-534 -354 c-2 -117 -6 -165 -15 -174 -38 -37 -112 -60 -202 -63
-50 -1 -98 -4 -106 -6 -13 -2 -15 20 -18 145 l-3 148 41 16 c22 9 40 20 40 24
0 12 107 49 143 50 18 0 48 7 67 14 19 7 40 12 45 11 6 -2 9 -63 8 -165z
m-453 -125 l0 -143 -72 -12 c-40 -7 -95 -13 -123 -14 l-50 -2 -3 107 c-3 123
-14 110 122 159 47 17 89 35 92 40 3 5 12 9 20 9 11 0 14 -25 14 -144z m-320
-86 c0 -85 -2 -99 -17 -104 -19 -6 -149 -25 -171 -26 -21 0 -34 51 -27 112 l7
56 51 20 c81 32 141 50 150 45 4 -2 7 -49 7 -103z"/>
</g>
</svg>
